<svg xmlns="http://www.w3.org/2000/svg" viewBox="0 0 246.26 300"><defs><style>.cls-1{fill:#010101;}.cls-2{fill:#fefefe;}.cls-3{fill:#fc8e49;}.cls-4{fill:#fcfcfc;}.cls-5{fill:#fbfbfb;}</style></defs><title>gerenciamento</title><g id="Camada_2" data-name="Camada 2"><g id="Camada_1-2" data-name="Camada 1"><path class="cls-1" d="M242.09,300H4.17C1,298.3-.07,295.67,0,292.08c.19-8.79-.08-17.58.11-26.37.16-6.91,0-13.94,1.27-20.68,4.21-22.43,17.26-38.53,37.51-48.54A56.44,56.44,0,0,1,65,191c5.63.09,11.26,0,17.1,0,0-4.92.08-9.58-.07-14.24a5,5,0,0,0-1.47-2.59c-3.23-3.77-7.08-7.14-9.68-11.3-4-6.39-7.14-13.3-10.87-20.42-9.34.21-17.49-3.69-22.19-13s-3.06-18.33,3.46-26.43c-.76-.84-1.43-1.54-2-2.29-6.52-8-5.11-19.91,3.58-25.37C46.19,73.3,47.27,71,48,67.35c4.94-25.54,19.85-42.56,44.5-51,.72-.25,1.7-.85,1.87-1.47A20.28,20.28,0,0,1,108.48,0h29.3c6.94,2.24,11.68,6.72,13.72,13.76a3.76,3.76,0,0,0,2.86,2.76c25.63,9.23,40.55,27.27,44.56,54.29A4.59,4.59,0,0,0,201,73.74c7.64,4,11.65,11.91,9.35,20-1,3.42-3.17,6.5-4.92,10,6,8.16,7.37,16.51,3.48,24.74-4.68,9.9-12.89,14.16-23.54,14a2.21,2.21,0,0,0-.23.34c-3.85,12.47-10.31,23.28-20.15,32a2.31,2.31,0,0,0-.83,1.42c-.06,4.93,0,9.86,0,14.84,6.55,0,12.71-.1,18.85,0a57.5,57.5,0,0,1,27.69,7.24c23,13.11,34.85,33,35.44,59.51.26,11.41-.06,22.84.11,34.26C246.31,295.66,245.27,298.29,242.09,300ZM70.39,107.33c0,6,.07,11.63,0,17.29a53.57,53.57,0,0,0,7.72,28.3c11.16,19.1,32.14,29.67,53.69,25.58,22.09-4.19,35.81-18.31,42.31-39.65,2.49-8.19,1.64-16.62,1.77-25,0-2.19,0-4.39,0-6.54Zm128.89,98.36c-6.27-1.56-12.28-3.82-18.95-3.3-5.73.45-11.51.15-17.26.42a6.37,6.37,0,0,0-3.95,1.7c-9.52,9.8-18.88,19.75-28.37,29.56a6,6,0,0,0-1.79,4.62c.06,15.51,0,31,0,46.54v2.84h70.29ZM47,288.12h70.25c0-17,0-33.91,0-50.78a4.06,4.06,0,0,0-1.09-2.49q-14.58-15.42-29.31-30.71a5,5,0,0,0-3.24-1.34c-7.42-.12-14.86-.37-22.25,0-4.84.27-9.61,1.6-14.31,2.43ZM58.78,72H187.22c-2-22.27-19.74-39.55-34.79-43.48,0,8.41,0,16.81,0,25.2,0,3.85-2.75,6.74-6,6.63s-5.58-2.88-5.72-6.59c0-.69,0-1.37,0-2.05,0-10.74,0-21.48,0-32.21,0-4.88-2.91-7.73-7.75-7.73H113.33c-4.84,0-7.75,2.85-7.77,7.7,0,5.08,0,10.15,0,15.23,0,6.34.08,12.69,0,19-.08,5.08-4.45,8-8.47,5.85-2.5-1.36-3.24-3.7-3.23-6.42,0-8.25,0-16.49,0-25.16C73.69,36.24,62.19,50.73,58.78,72Zm64.51,11.84H53.61c-4.31,0-6.69,2.13-6.66,5.92s2.41,5.79,6.49,5.79q69.68,0,139.36,0c4.09,0,6.48-2.13,6.52-5.77,0-3.79-2.36-5.94-6.65-5.94ZM11.82,288.09H35.09V212.54c-.3.05-.52,0-.64.12C21.16,222.68,13.25,236,12,252.54,11.1,264.26,11.82,276.11,11.82,288.09Zm199.4-75.87v75.86h23.25c0-10.43-.09-20.66,0-30.89a52.5,52.5,0,0,0-4.78-22.29A55.29,55.29,0,0,0,211.22,212.22ZM93.83,183.59c0,3.1.14,5.74,0,8.36a5.86,5.86,0,0,0,2,4.84c7,7.2,13.86,14.54,20.83,21.77,2.14,2.23,4.46,4.28,6.84,6.54q14.15-14.82,28.38-29.77a2.48,2.48,0,0,0,.59-1.54c.06-3.27,0-6.54,0-10.18C132.83,193.33,113.51,193.34,93.83,183.59ZM58.73,130.5V107.29c-7.13,0-12,5.35-11.78,12.58A11.27,11.27,0,0,0,58.73,130.5Zm128.75.21a11.79,11.79,0,0,0,10-18.23,10.87,10.87,0,0,0-10-5.22Z"></path><path class="cls-2" d="M70.39,107.33H175.87c0,2.15,0,4.35,0,6.54-.13,8.36.72,16.79-1.77,25-6.5,21.34-20.22,35.46-42.31,39.65-21.55,4.09-42.53-6.48-53.69-25.58a53.57,53.57,0,0,1-7.72-28.3C70.46,119,70.39,113.3,70.39,107.33Z"></path><path class="cls-2" d="M199.28,205.69v82.38H129v-2.84c0-15.52,0-31,0-46.54a6,6,0,0,1,1.79-4.62c9.49-9.81,18.85-19.76,28.37-29.56a6.37,6.37,0,0,1,3.95-1.7c5.75-.27,11.53,0,17.26-.42C187,201.87,193,204.13,199.28,205.69Z"></path><path class="cls-2" d="M47,288.12V205.28c4.7-.83,9.47-2.16,14.31-2.43,7.39-.42,14.83-.17,22.25,0a5,5,0,0,1,3.24,1.34q14.75,15.27,29.31,30.71a4.06,4.06,0,0,1,1.09,2.49c.07,16.87,0,33.74,0,50.78Z"></path><path class="cls-3" d="M58.78,72c3.41-21.22,14.91-35.71,35.05-44,0,8.67,0,16.91,0,25.16,0,2.72.73,5.06,3.23,6.42,4,2.2,8.39-.77,8.47-5.85.11-6.34,0-12.69,0-19,0-5.08,0-10.15,0-15.23,0-4.85,2.93-7.7,7.77-7.7H133c4.84,0,7.74,2.85,7.75,7.73,0,10.73,0,21.47,0,32.21,0,.68,0,1.36,0,2.05.14,3.71,2.56,6.49,5.72,6.59s5.94-2.78,6-6.63c.07-8.39,0-16.79,0-25.2,15,3.93,32.76,21.21,34.79,43.48Z"></path><path class="cls-3" d="M123.29,83.79h69.38c4.29,0,6.68,2.15,6.65,5.94,0,3.64-2.43,5.77-6.52,5.77q-69.69,0-139.36,0c-4.08,0-6.47-2.15-6.49-5.79s2.35-5.92,6.66-5.92Z"></path><path class="cls-3" d="M11.82,288.09c0-12-.72-23.83.17-35.55,1.26-16.52,9.17-29.86,22.46-39.88.12-.09.34-.07.64-.12v75.55Z"></path><path class="cls-3" d="M211.22,212.22a55.29,55.29,0,0,1,18.51,22.68,52.5,52.5,0,0,1,4.78,22.29c-.13,10.23,0,20.46,0,30.89H211.22Z"></path><path class="cls-4" d="M93.83,183.59c19.68,9.75,39,9.74,58.6,0,0,3.64,0,6.91,0,10.18a2.48,2.48,0,0,1-.59,1.54q-14.19,14.92-28.38,29.77c-2.38-2.26-4.7-4.31-6.84-6.54-7-7.23-13.83-14.57-20.83-21.77a5.86,5.86,0,0,1-2-4.84C94,189.33,93.83,186.69,93.83,183.59Z"></path><path class="cls-5" d="M58.73,130.5A11.27,11.27,0,0,1,47,119.87c-.24-7.23,4.65-12.6,11.78-12.58Z"></path><path class="cls-5" d="M187.48,130.71V107.26a10.87,10.87,0,0,1,10,5.22,11.79,11.79,0,0,1-10,18.23Z"></path></g></g></svg>